# xmcd
#
# Track frame offsets:
#	150
#	12014
#	24445
#	38573
#	52550
#	60997
#	74468
#	99292
#	115159
#	131069
#	149335
#	157626
#	173057
#	185193
#	195306
#	209601
#	229172
#	247255
#	268196
#	289415
#
# Disc length: 4123 seconds
# Revision: 0
# Processed by: cddbd v1.5.2PL0 Copyright (c) Steve Scherf et al.
# Submitted via: dBpowerAMP V12.0
#
DISCID=17101914
DTITLE=Diverse Artister - 96% Låvedans 2
DYEAR=2007
DGENRE=Comedy
TTITLE0=Bonde ifra hamlagrø
TTITLE1=Juballong på Toten
TTITLE2=Fjøsvisa
TTITLE3=Fisking i Valdres
TTITLE4=Nå må'ru slutt opp me å se på meg sånn
TTITLE5=Yes we have no bananas
TTITLE6=Det er langt igjen til Royal Albert Hall
TTITLE7=Plukka blommar i Hardanger
TTITLE8=Rompa mi
TTITLE9=Balladen om Morgan Kane
TTITLE10=Gi meg fri i kveld
TTITLE11=For livets glade gutter går solen aldri ned
TTITLE12=Kalle med fela
TTITLE13=En gang skal jeg dra til Kansas City
TTITLE14=Jag är inte sjuk (jag är bara Svensk)
TTITLE15=Rumba med Gunn
TTITLE16=Jeg kommer snart igjen
TTITLE17=Æ e trønder æ
TTITLE18=Noen ganger er det allright
TTITLE19=Siste Dans
EXTD=
EXTT0=
EXTT1=
EXTT2=
EXTT3=
EXTT4=
EXTT5=
EXTT6=
EXTT7=
EXTT8=
EXTT9=
EXTT10=
EXTT11=
EXTT12=
EXTT13=
EXTT14=
EXTT15=
EXTT16=
EXTT17=
EXTT18=
EXTT19=
PLAYORDER=
